HIERARCHY
ROOT RootJoint
{
    OFFSET   0.000000   0.000000   0.000000
    CHANNELS 6 Xposition Yposition Zposition Xrotation Yrotation Zrotation
    JOINT pelvis_lowerback
    {
        OFFSET   0.000000   0.093605   0.000000
        CHANNELS 3 Xrotation Yrotation Zrotation
        JOINT lowerback_torso
        {
            OFFSET   0.000000   0.100000   0.000000
            CHANNELS 3 Xrotation Yrotation Zrotation
            JOINT torso_head
            {
                OFFSET   0.000000   0.282350   0.000000
                CHANNELS 3 Xrotation Yrotation Zrotation
                End Site
                {
                    OFFSET   0.000000   0.192650   0.000000
                }
            }
            JOINT rTorso_Clavicle
            {
                OFFSET  -0.001000   0.157500   0.000000
                CHANNELS 3 Xrotation Yrotation Zrotation
                JOINT rShoulder
                {
                    OFFSET  -0.117647   0.000000   0.000000
                    CHANNELS 3 Xrotation Yrotation Zrotation
                    JOINT rElbow
                    {
                        OFFSET  -0.245000   0.000000   0.000000
                        CHANNELS 3 Xrotation Yrotation Zrotation
                        JOINT rWrist
                        {
                            OFFSET  -0.240000   0.000000   0.000000
                            CHANNELS 3 Xrotation Yrotation Zrotation
                            End Site
                            {
                                OFFSET  -0.116353  -0.002500   0.000000
                            }
                        }
                    }
                }
            }
            JOINT lTorso_Clavicle
            {
                OFFSET   0.001000   0.157500   0.000000
                CHANNELS 3 Xrotation Yrotation Zrotation
                JOINT lShoulder
                {
                    OFFSET   0.117647   0.000000   0.000000
                    CHANNELS 3 Xrotation Yrotation Zrotation
                    JOINT lElbow
                    {
                        OFFSET   0.245000   0.000000   0.000000
                        CHANNELS 3 Xrotation Yrotation Zrotation
                        JOINT lWrist
                        {
                            OFFSET   0.240000   0.000000   0.000000
                            CHANNELS 3 Xrotation Yrotation Zrotation
                            End Site
                            {
                                OFFSET   0.116353  -0.002500   0.000000
                            }
                        }
                    }
                }
            }
        }
    }
    JOINT rHip
    {
        OFFSET  -0.100000  -0.051395   0.000000
        CHANNELS 3 Xrotation Yrotation Zrotation
        JOINT rKnee
        {
            OFFSET   0.000000  -0.410000   0.000000
            CHANNELS 3 Xrotation Yrotation Zrotation
            JOINT rAnkle
            {
                OFFSET   0.000000  -0.390000   0.000000
                CHANNELS 3 Xrotation Yrotation Zrotation
                JOINT rToeJoint
                {
                    OFFSET   0.000000  -0.050000   0.130000
                    CHANNELS 3 Xrotation Yrotation Zrotation
                    End Site
                    {
                        OFFSET  -0.010000   0.002000   0.060000
                    }
                }
            }
        }
    }
    JOINT lHip
    {
        OFFSET   0.100000  -0.051395   0.000000
        CHANNELS 3 Xrotation Yrotation Zrotation
        JOINT lKnee
        {
            OFFSET   0.000000  -0.410000   0.000000
            CHANNELS 3 Xrotation Yrotation Zrotation
            JOINT lAnkle
            {
                OFFSET   0.000000  -0.390000   0.000000
                CHANNELS 3 Xrotation Yrotation Zrotation
                JOINT lToeJoint
                {
                    OFFSET   0.000000  -0.050000   0.130000
                    CHANNELS 3 Xrotation Yrotation Zrotation
                    End Site
                    {
                        OFFSET   0.010000   0.002000   0.060000
                    }
                }
            }
        }
    }
}
MOTION
Frames: 14
Frame Time:   0.008333
 -1.290672   0.604785   5.232498 -142.379555  -5.680318 -178.931312  54.761383   3.999583   1.604880   1.878132  -0.265477   3.759847  -1.087825   1.775988  -3.671783  -0.709948  15.420039   1.372323   2.034366  11.030733  31.602461  -0.000267  55.767794  -0.000064   8.265905   2.964610 -12.399621  -2.985352 -19.456592  -0.306009   3.919446 -13.079639 -26.976383   0.005419 -61.430541   0.005242   7.895521  -6.180349  14.989855 -31.612677  -7.210154 -17.988269  96.974707  -0.000460  -0.000143 -39.547936 -11.587309  -3.050482  -0.012990   0.000158   0.000085 -25.064407   5.449934  15.704374 103.987976  -0.000328  -0.000938 -52.356767   2.615790   4.080530  -2.834333  -0.000046   0.000068
 -1.291074   0.603678   5.233566 -142.036566  -5.461769 -178.998045  54.757861   4.025882   1.543470   1.768417  -0.224850   3.654830  -1.120778   1.742287  -3.584312  -0.755809  15.391118   1.518090   1.925142  11.144718  31.434246  -0.001206  55.874724   0.000767   8.340665   2.896917 -12.263210  -2.986814 -19.430146  -0.418679   3.895858 -13.156260 -26.940220   0.005415 -61.274040   0.005226   7.972842  -6.176569  14.891549 -31.462291  -7.114568 -17.970690  97.108492  -0.000504  -0.000276 -39.718302 -11.476858  -2.871732   0.020202   0.000061   0.000044 -24.824915   5.525782  15.733490 104.145663  -0.000383  -0.000948 -52.524174   2.610142   4.103104  -2.802953  -0.000023   0.000014
 -1.291414   0.602671   5.234728 -141.711478  -5.247684 -179.057319  54.763583   4.047485   1.491969   1.667733  -0.184782   3.553313  -1.150910   1.707232  -3.500312  -0.817128  15.375806   1.649547   1.807691  11.261789  31.268113  -0.001949  55.983459   0.001424   8.418124   2.864802 -12.194095  -2.984269 -19.404779  -0.535414   3.875796 -13.226296 -26.913539   0.005241 -61.124172   0.005061   8.043380  -6.155089  14.805859 -31.328278  -7.023075 -17.956836  97.222745  -0.000525  -0.000352 -39.882776 -11.374898  -2.704307   0.043183   0.000004   0.000017 -24.605825   5.610592  15.764453 104.279682  -0.000396  -0.000913 -52.676798   2.606463   4.121591  -2.761741   0.000001  -0.000037
 -1.291675   0.601751   5.235966 -141.402291  -5.044221 -179.108171  54.773926   4.068888   1.446665   1.576475  -0.144713   3.458110  -1.177925   1.673958  -3.420115  -0.881989  15.368325   1.767333   1.692226  11.376109  31.108255  -0.002458  56.088200   0.001875   8.496157   2.852755 -12.154379  -2.979126 -19.383202  -0.649729   3.858598 -13.293292 -26.893160   0.004957 -60.984090   0.004793   8.110093  -6.131267  14.713885 -31.207671  -6.939150 -17.946519  97.320454  -0.000526  -0.000383 -40.038356 -11.280682  -2.547420   0.063495  -0.000036  -0.000002 -24.405873   5.696134  15.794549 104.394541  -0.000385  -0.000851 -52.820536   2.603665   4.137623  -2.723391   0.000019  -0.000068
 -1.291847   0.600904   5.237266 -141.106884  -4.853079 -179.149618  54.787454   4.090503   1.405309   1.494149  -0.105146   3.368917  -1.202277   1.642779  -3.344224  -0.946022  15.365143   1.874642   1.581952  11.485632  30.956823  -0.002767  56.187551   0.002152   8.572997   2.850765 -12.126816  -2.972575 -19.364406  -0.759225   3.843552 -13.357037 -26.876751   0.004619 -60.853560   0.004473   8.174353  -6.109732  14.616844 -31.097935  -6.862629 -17.938698  97.404366  -0.000512  -0.000384 -40.185101 -11.193555  -2.400437   0.081865  -0.000064  -0.000015 -24.223123   5.779609  15.823110 104.492715  -0.000360  -0.000774 -52.956051   2.601398   4.151893  -2.688311   0.000030  -0.000086
 -1.291926   0.600122   5.238619 -140.823554  -4.674784 -179.181066  54.803314   4.112022   1.366726   1.420141  -0.066590   3.285259  -1.224296   1.613648  -3.272860  -1.007197  15.364165   1.973602   1.478151  11.589429  30.814684  -0.002918  56.281088   0.002292   8.647739   2.853843 -12.104052  -2.965236 -19.347349  -0.862878   3.830274 -13.417067 -26.862950   0.004263 -60.731885   0.004135   8.236353  -6.090668  14.517905 -30.997297  -6.792874 -17.932563  97.476723  -0.000488  -0.000365 -40.323292 -11.112906  -2.262813   0.098554  -0.000083  -0.000023 -24.055999   5.859738  15.850080 104.576196  -0.000326  -0.000688 -53.083771   2.599495   4.164778  -2.656252   0.000036  -0.000093
 -1.291913   0.599395   5.240017 -140.550882  -4.509343 -179.202159  54.820928   4.133090   1.330315   1.353816  -0.029426   3.206747  -1.244234   1.586453  -3.206004  -1.064573  15.364104   2.065514   1.381262  11.687085  30.681945  -0.002949  56.368762   0.002330   8.719941   2.859286 -12.082766  -2.957437 -19.331328  -0.960331   3.818529 -13.473144 -26.850960   0.003910 -60.618360   0.003797   8.296033  -6.073349  14.419256 -30.904461  -6.729189 -17.927593  97.539374  -0.000457  -0.000334 -40.453271 -11.038187  -2.134027   0.113754  -0.000095  -0.000028 -23.903194   5.935920  15.875584 104.646652  -0.000289  -0.000601 -53.204103   2.597867   4.176513  -2.626952   0.000039  -0.000093
 -1.291737   0.598712   5.241448 -140.238799  -4.381244 -179.197569  54.908346   4.099177   1.332912   1.303491  -0.011458   3.089894  -1.324937   1.503983  -3.132820  -1.147333  15.394559   2.179797   1.175190  11.808026  30.483705  -0.003933  56.553144   0.003107   8.742828   2.768622 -11.986572  -2.958988 -19.276959  -1.058500   3.823092 -13.503979 -26.834536   0.003744 -60.454127   0.003680   8.378812  -6.095148  14.432644 -30.667388  -6.553914 -17.928038  97.713444  -0.000307  -0.000383 -40.617467 -10.915460  -2.005962   0.119307  -0.000079  -0.000018 -23.719006   6.007960  15.914448 104.703838  -0.000237  -0.000501 -53.324315   2.561230   4.177862  -2.517623   0.000066  -0.000125
 -1.291377   0.598050   5.242941 -139.956137  -4.281222 -179.183934  54.990519   4.065203   1.340669   1.250497   0.008208   2.972403  -1.401724   1.422323  -3.062638  -1.250129  15.439490   2.271873   0.962850  11.934380  30.280877  -0.004703  56.735951   0.003641   8.771427   2.721769 -11.959603  -2.954872 -19.225009  -1.159476   3.831235 -13.529039 -26.824651   0.003521 -60.294762   0.003541   8.451979  -6.087907  14.445641 -30.398050  -6.360486 -17.944616  97.923810  -0.000077  -0.000459 -40.771006 -10.802011  -1.887799   0.117560  -0.000064  -0.000016 -23.582990   6.065837  15.971549 104.757217  -0.000185  -0.000404 -53.438726   2.526962   4.178610  -2.416099   0.000071  -0.000112
 -1.290834   0.597422   5.244496 -139.704476  -4.196058 -179.160875  55.065804   4.041010   1.341446   1.195541   0.034375   2.852660  -1.473420   1.345589  -2.996135  -1.359572  15.492011   2.346325   0.754853  12.059757  30.080811  -0.005181  56.910859   0.003899   8.803689   2.699637 -11.973748  -2.947901 -19.177165  -1.259625   3.840698 -13.552795 -26.819839   0.003261 -60.144988   0.003384   8.519880  -6.072270  14.448204 -30.113564  -6.170434 -17.977210  98.140573   0.000142  -0.000535 -40.914108 -10.697078  -1.777976   0.115199  -0.000052  -0.000015 -23.490309   6.114998  16.040670 104.802569  -0.000139  -0.000315 -53.548437   2.495785   4.178162  -2.322876   0.000063  -0.000078
 -1.290112   0.596834   5.246111 -139.481036  -4.118348 -179.128610  55.135428   4.027752   1.331288   1.140995   0.067623   2.729345  -1.540227   1.274015  -2.934117  -1.470249  15.548937   2.407970   0.554698  12.182293  29.887310  -0.005398  57.076805   0.003932   8.837697   2.691960 -12.009550  -2.939031 -19.131814  -1.356718   3.851017 -13.574752 -26.818264   0.002987 -60.004768   0.003216   8.584214  -6.054851  14.443521 -29.821498  -5.990423 -18.022005  98.352781   0.000317  -0.000599 -41.047469 -10.599782  -1.675616   0.113408  -0.000042  -0.000014 -23.433676   6.157138  16.116622 104.837712  -0.000104  -0.000240 -53.653721   2.467413   4.176692  -2.237440   0.000046  -0.000039
 -1.289218   0.596286   5.247780 -139.282613  -4.043771 -179.087896  55.200777   4.024681   1.309498   1.088721   0.107414   2.602560  -1.602317   1.207343  -2.876855  -1.579344  15.608241   2.459991   0.363884  12.301071  29.702287  -0.005406  57.233661   0.003804   8.872521   2.694069 -12.056718  -2.928580 -19.087595  -1.449655   3.862148 -13.594168 -26.818814   0.002709 -59.873373   0.003039   8.645245  -6.036229  14.434386 -29.526823  -5.822620 -18.075106  98.556508   0.000438  -0.000643 -41.171755 -10.509445  -1.580095   0.112451  -0.000034  -0.000012 -23.406930   6.192506  16.195793 104.861789  -0.000079  -0.000181 -53.754739   2.441477   4.174528  -2.159197   0.000025  -0.000003
 -1.288161   0.595779   5.249501 -139.106120  -3.969536 -179.039604  55.263113   4.030566   1.276767   1.040037   0.152845   2.473076  -1.659880   1.145254  -2.824267  -1.685259  15.668497   2.504485   0.183027  12.415522  29.526594  -0.005257  57.381581   0.003567   8.907641   2.703317 -12.109634  -2.916691 -19.043717  -1.537996   3.874102 -13.610639 -26.820853   0.002437 -59.750053   0.002855   8.702928  -6.015727  14.422287 -29.233279  -5.667473 -18.133405  98.750452   0.000509  -0.000666 -41.287587 -10.425496  -1.490902   0.112295  -0.000028  -0.000010 -23.404953   6.221118  16.275778 104.874578  -0.000061  -0.000138 -53.851632   2.417649   4.171956  -2.087570   0.000001   0.000026
 -1.287070   0.595429   5.251425 -138.844579  -3.904675 -178.916914  55.491897   3.893297   1.231257   1.001712   0.158134   2.326015  -1.760006   1.044393  -2.851880  -1.945359  15.802490   2.629796  -0.233526  12.583858  29.404607  -0.005271  57.492606   0.003737   8.912131   2.617687 -12.070626  -2.959882 -18.928021  -1.655999   3.907848 -13.563387 -26.775947   0.002198 -59.604916   0.002701   8.767372  -6.011220  14.448776 -28.716271  -5.471128 -18.239315  98.691448   0.000327  -0.000484 -41.534457 -10.335284  -1.402313   0.094672  -0.000033  -0.000026 -23.300453   6.268331  16.263849 104.827929  -0.000053  -0.000127 -53.900140   2.353253   4.149910  -1.908308   0.000010   0.000001
